<svg xmlns="http://www.w3.org/2000/svg" width="61" height="61" viewBox="0 0 61 61" fill="none"><rect x="0.0546875" y="0.131104" width="60" height="60" rx="8" fill="white"></rect><g clip-path="url(#clip0_2_713)"><mask id="mask0_2_713" style="mask-type:luminance" maskUnits="userSpaceOnUse" x="10" y="11" width="40" height="41"><path d="M10 11.78H50V51.78H10V11.78Z" fill="white"></path></mask><g mask="url(#mask0_2_713)"><mask id="mask1_2_713" style="mask-type:alpha" maskUnits="userSpaceOnUse" x="9" y="11" width="41" height="41"><path fill-rule="evenodd" clip-rule="evenodd" d="M38.3651 51.5066C38.6832 51.6307 39.0234 51.688 39.3646 51.6749C39.7058 51.6619 40.0407 51.5788 40.3484 51.4308L48.5842 47.4683C49.0085 47.2641 49.3664 46.9443 49.6169 46.5457C49.8674 46.147 50.0002 45.6858 50.0001 45.215V18.345C50 17.8743 49.8672 17.4132 49.6167 17.0147C49.3662 16.6163 49.0083 16.2966 48.5842 16.0925L40.3501 12.1291C39.8847 11.9052 39.3612 11.8314 38.8521 11.9182C38.3429 12.0049 37.8734 12.2479 37.5084 12.6133L21.7418 26.9966L14.8751 21.7841C14.5653 21.5488 14.1829 21.4294 13.7943 21.4466C13.4057 21.4638 13.0354 21.6165 12.7476 21.8783L10.5451 23.8816C10.3734 24.0377 10.2362 24.2279 10.1422 24.4401C10.0483 24.6523 9.99967 24.8817 9.99951 25.1138C9.99936 25.3458 10.0477 25.5753 10.1413 25.7876C10.235 25.9999 10.3719 26.1903 10.5434 26.3466L16.5001 31.78L10.5434 37.2133C10.3719 37.3696 10.235 37.56 10.1413 37.7723C10.0477 37.9846 9.99936 38.2141 9.99951 38.4462C9.99967 38.6782 10.0483 38.9076 10.1422 39.1198C10.2362 39.332 10.3734 39.5222 10.5451 39.6783L12.7476 41.6816C13.0353 41.9435 13.4055 42.0964 13.7942 42.1137C14.1828 42.1311 14.5652 42.0118 14.8751 41.7766L21.7418 36.5633L37.5084 50.9466C37.7567 51.1966 38.0501 51.3841 38.3651 51.5066ZM40.0068 22.7L28.0426 31.78L40.0051 40.8608V22.7H40.0068Z" fill="white"></path></mask><g mask="url(#mask1_2_713)"><path d="M48.5842 16.0981L40.3426 12.1298C39.8771 11.9058 39.3536 11.832 38.8443 11.9186C38.3351 12.0052 37.8653 12.2479 37.5001 12.6131L10.5192 37.2131C10.3478 37.3695 10.2108 37.5599 10.1171 37.7722C10.0235 37.9845 9.97519 38.214 9.97534 38.446C9.9755 38.6781 10.0241 38.9075 10.1181 39.1197C10.212 39.3318 10.3492 39.5221 10.5209 39.6781L12.7251 41.6815C13.013 41.9433 13.3834 42.0961 13.7721 42.1134C14.1608 42.1308 14.5434 42.0116 14.8534 41.7765L47.3451 17.1281C48.4334 16.3006 50.0001 17.0781 50.0001 18.4465V18.3506C50 17.8799 49.8669 17.4187 49.6163 17.0203C49.3657 16.6218 49.0085 16.3021 48.5842 16.0981Z" fill="#0065A9"></path><path d="M48.5842 47.4616L40.3426 51.4299C39.8771 51.6539 39.3536 51.7277 38.8443 51.6411C38.3351 51.5546 37.8653 51.3118 37.5001 50.9466L10.5192 26.3466C10.3478 26.1903 10.2108 25.9999 10.1171 25.7876C10.0235 25.5753 9.97519 25.3457 9.97534 25.1137C9.9755 24.8817 10.0241 24.6522 10.1181 24.44C10.212 24.2279 10.3492 24.0377 10.5209 23.8816L12.7251 21.8782C13.0131 21.6166 13.3835 21.4639 13.7722 21.4467C14.161 21.4295 14.5435 21.5489 14.8534 21.7841L47.3451 46.4316C48.4334 47.2591 50.0001 46.4816 50.0001 45.1132V45.2091C50 45.6797 49.8671 46.1408 49.6167 46.5393C49.3662 46.9378 49.0083 47.2575 48.5842 47.4616Z" fill="#007ACC"></path><path d="M40.3433 51.4299C39.8777 51.6539 39.3541 51.7277 38.8447 51.6411C38.3353 51.5545 37.8654 51.3118 37.5 50.9466C38.4225 51.8691 40 51.2157 40 49.9107V13.6491C40 12.3441 38.4225 11.6907 37.5 12.6132C37.8654 12.2479 38.3353 12.0051 38.8447 11.9186C39.354 11.832 39.8778 11.9058 40.3433 12.1299L48.5833 16.0916C49.0077 16.2956 49.3658 16.6154 49.6165 17.014C49.8671 17.4127 50 17.874 50 18.3449V45.2149C49.9999 45.6857 49.8669 46.1468 49.6162 46.5453C49.3656 46.9438 49.0076 47.2634 48.5833 47.4674L40.3433 51.4299Z" fill="#1F9CF0"></path></g></g></g><defs><clipPath id="clip0_2_713"><rect width="40" height="40" fill="white" transform="translate(10 11.78)"></rect></clipPath></defs></svg>