<svg xmlns="http://www.w3.org/2000/svg" width="51" height="51" viewBox="0 0 51 51" fill="none"><rect x="0.0546875" y="0.821411" width="50" height="50" rx="25" fill="#4268FF"></rect><g clip-path="url(#clip0_2_644)"><path d="M33.7 17H16.3C16.12 17 16 17.12 16 17.3V31.1C16 31.28 16.12 31.4 16.3 31.4H22.9V34.4H22V35H23.2H26.8H28V34.4H27.1V31.4H33.7C33.88 31.4 34 31.28 34 31.1V17.3C34 17.12 33.88 17 33.7 17ZM26.5 34.4H23.5V31.4H26.5V34.4ZM33.4 30.8H26.8H23.2H16.6V28.4H17.5H24.1H25.9H32.5H33.4V30.8ZM26.14 21.89L25.27 19.61C25.24 19.52 25.12 19.43 25 19.43C24.88 19.43 24.76 19.49 24.73 19.61L23.86 21.89C23.83 21.95 23.8 22.01 23.8 22.1V27.8H17.8V18.8H32.2V27.8H26.2V22.1C26.2 22.01 26.17 21.95 26.14 21.89ZM24.52 21.8L24.97 20.54L25.45 21.8H24.52ZM24.7 22.4V27.8H24.4V22.4H24.7ZM25.3 22.4H25.6V27.8H25.3V22.4ZM33.4 27.8H32.8V18.5C32.8 18.32 32.68 18.2 32.5 18.2H17.5C17.32 18.2 17.2 18.32 17.2 18.5V27.8H16.6V17.6H33.4V27.8Z" fill="white"></path><path d="M31.2999 24.5V22.1C31.2999 21.92 31.1799 21.8 30.9999 21.8H27.3999V22.1V22.4V23.3H27.9999V22.4H29.1999V23.3H29.7999V22.4H30.6999V24.2H27.3999V24.8H30.9999C31.1799 24.8 31.2999 24.68 31.2999 24.5Z" fill="white"></path><path d="M18.7 22.1V24.5C18.7 24.68 18.82 24.8 19 24.8H22.6V24.2H19.3V22.4H20.2V23.3H20.8V22.4H22V23.3H22.6V22.4V22.1V21.8H19C18.82 21.8 18.7 21.92 18.7 22.1Z" fill="white"></path><path d="M20.2001 25.4H19.6001V26H20.2001V25.4Z" fill="white"></path><path d="M21.4 25.4H20.8V26H21.4V25.4Z" fill="white"></path><path d="M22.6 25.4H22V26H22.6V25.4Z" fill="white"></path><path d="M27.9999 25.4H27.3999V26H27.9999V25.4Z" fill="white"></path><path d="M29.2001 25.4H28.6001V26H29.2001V25.4Z" fill="white"></path><path d="M30.4 25.4H29.8V26H30.4V25.4Z" fill="white"></path><path d="M27.9999 20.6H27.3999V21.2H27.9999V20.6Z" fill="white"></path><path d="M29.2001 20.6H28.6001V21.2H29.2001V20.6Z" fill="white"></path><path d="M30.4 20.6H29.8V21.2H30.4V20.6Z" fill="white"></path><path d="M20.2001 20.6H19.6001V21.2H20.2001V20.6Z" fill="white"></path><path d="M21.4 20.6H20.8V21.2H21.4V20.6Z" fill="white"></path><path d="M22.6 20.6H22V21.2H22.6V20.6Z" fill="white"></path></g><defs><clipPath id="clip0_2_644"><rect width="18" height="18" fill="white" transform="translate(16 17)"></rect></clipPath></defs></svg>