<svg xmlns="http://www.w3.org/2000/svg" width="51" height="51" viewBox="0 0 51 51" fill="none"><rect x="0.0273438" y="0.330566" width="50" height="50" rx="25" fill="#4268FF"></rect><g clip-path="url(#clip0_41_85)"><path d="M39.0228 26.0471L36.2037 25.8138L31.2494 19.5411C30.8052 18.8302 30.0191 18.1234 29.0364 17.5492C28.9504 17.5 28.8634 17.4519 28.7754 17.4058L31.9036 12.8334C32.0612 12.6036 32.1442 12.3359 32.1442 12.0585C32.1442 11.604 31.921 11.1793 31.5453 10.9233L30.5472 10.2411C30.319 10.0834 30.0508 10 29.7693 10C29.3168 10 28.8931 10.2231 28.6371 10.5978L24.5371 16.591H20.1627C19.372 16.6248 18.7127 16.761 18.1478 17.0076C17.5674 17.2599 17.0545 17.6515 16.641 18.153L13.65 20.9915C13.0967 21.5023 12.7036 22.1247 12.482 22.8432C12.3101 23.397 12.2569 23.9293 12.2143 24.3571L12.202 24.4779L11.4384 30.0843C11.357 30.4364 11.315 30.7701 11.315 31.0761C11.3119 32.0209 11.6999 32.6095 11.9312 32.8756C12.223 33.2145 12.5142 33.364 12.5771 33.391C12.6805 33.453 12.789 33.5 12.8986 33.5318L11.8913 34.9771C11.8622 35.0191 11.8596 35.0769 11.8678 35.1286L10.7951 39.7492C10.7767 39.8311 10.8094 39.9166 10.8791 39.9641C10.9139 39.9882 10.9548 40 10.9947 40C11.0352 40 11.0756 39.9882 11.1104 39.9647L15.0165 37.2997C15.0718 37.2926 15.1235 37.2619 15.1572 37.2127L17.8278 33.3097C18.0075 33.3839 18.1959 33.4356 18.3913 33.4632C18.4865 33.6296 18.6032 33.7857 18.7394 33.9279C19.0199 34.2248 19.6581 34.7228 20.7907 34.7228C21.3015 34.7228 21.8819 34.6173 22.5176 34.4096C22.9127 34.709 23.3308 34.9577 23.793 35.1696C24.8637 35.6599 26.0567 35.9025 27.1862 36.0908C28.019 36.2295 29.063 36.3001 30.2883 36.3007C32.1492 36.3002 33.8412 36.1394 34.2149 36.1016L38.9849 36.5893C38.9921 36.5893 38.9982 36.5903 39.0054 36.5903C39.0566 36.5903 39.1047 36.5714 39.1426 36.5371C39.1856 36.4987 39.2102 36.4434 39.2102 36.3856V26.2514C39.2101 26.1444 39.1292 26.0563 39.0228 26.0471ZM29.324 11.0676C29.4285 10.9131 29.5973 10.8322 29.7713 10.8312C29.8778 10.8312 29.9822 10.8619 30.0764 10.9258L30.1081 10.9484L31.0765 11.6102C31.23 11.7161 31.312 11.8845 31.312 12.0585C31.312 12.1639 31.2822 12.2683 31.2177 12.3635L30.7111 13.1046L28.8163 11.8082L29.324 11.0676ZM12.4994 38.0101L12.3986 38.0797L12.0859 37.8658L12.1135 37.747L12.6376 35.489L14.4136 36.704L12.4994 38.0101ZM13.1878 33.3685C13.2031 33.369 13.219 33.3752 13.2344 33.3752C13.243 33.3752 13.2507 33.3726 13.259 33.3721L13.2211 33.4269C13.2201 33.4243 13.2211 33.4212 13.2201 33.4187C13.2135 33.3992 13.1975 33.3859 13.1878 33.3685ZM15.2606 30.4998L13.8547 32.5184C13.7165 32.5614 13.5947 32.6054 13.4974 32.6371C13.3817 32.675 13.2978 32.6924 13.2344 32.6924C13.1673 32.6909 13.1126 32.6812 13.0112 32.6187L12.9887 32.6049L12.9692 32.5962L12.937 32.5788C12.8628 32.5368 12.6776 32.415 12.5148 32.1821C12.3521 31.9482 12.2037 31.6064 12.2026 31.0761C12.2026 30.8417 12.2323 30.57 12.3081 30.2572L12.3117 30.2398L13.0829 24.5864V24.5813C13.1305 24.1135 13.173 23.6078 13.3291 23.1068C13.4862 22.6057 13.7483 22.1097 14.255 21.6404L17.2731 18.7763L17.2863 18.7599C17.643 18.3239 18.033 18.026 18.5019 17.8213C18.9697 17.6171 19.5229 17.506 20.196 17.4774L24.1778 17.4784L20.7415 22.5013L20.4385 22.1062L18.076 23.9164L17.9174 24.2429C17.8703 24.2219 17.8207 24.1994 17.7679 24.1744C17.5079 24.0525 17.1947 23.8996 16.9459 23.7777C16.6983 23.6559 16.5166 23.5648 16.516 23.5648L16.211 24.1749C16.2115 24.1749 16.5375 24.3387 16.9132 24.5213C16.9848 24.5567 17.0586 24.5915 17.1317 24.6273C17.12 24.6294 17.1088 24.6304 17.0969 24.6324C17.0949 24.633 17.0928 24.6335 17.0913 24.6335V24.6345C16.5452 24.7455 16.0789 25.0829 15.7944 25.5527L15.7841 25.569L15.4596 26.1099L15.4443 26.135C15.256 26.4518 15.1628 26.8055 15.1633 27.1556C15.1628 27.6561 15.3521 28.1536 15.717 28.5349L15.8184 28.6398L15.2606 30.4998ZM20.4073 22.9901L18.9512 25.1177L18.6135 24.9391L18.6129 24.9396C18.5443 24.8931 18.4727 24.8511 18.399 24.8127L18.6195 24.3602L20.4073 22.9901ZM18.1456 32.4816L19.0413 31.1724L20.2461 32.1023C19.614 32.4776 19.1181 32.6029 18.7434 32.6024C18.507 32.6014 18.3115 32.5537 18.1456 32.4816ZM20.7907 33.8358C20.0311 33.8317 19.6289 33.5676 19.3802 33.3142C19.3504 33.283 19.33 33.2523 19.3044 33.2216C19.7548 33.1264 20.2589 32.9125 20.8214 32.5471L21.349 32.9545C21.5471 33.2104 21.7528 33.4417 21.9647 33.6546C21.5021 33.7836 21.1131 33.8358 20.7907 33.8358ZM38.3226 35.6291L34.2148 35.209L34.179 35.2131C34.1779 35.2137 34.0654 35.2259 33.8596 35.2448C33.2434 35.3006 31.8144 35.4137 30.2882 35.4132C29.2718 35.4137 28.2123 35.3625 27.3315 35.2157C26.0755 35.0069 25.0422 34.7668 24.1625 34.363C23.2821 33.9576 22.5482 33.3957 21.8588 32.5005L21.8317 32.4652L16.4301 28.2914L16.2096 28.0626L16.2101 28.0632C15.9695 27.8119 15.8462 27.4854 15.8457 27.1558C15.8457 26.9245 15.9061 26.6936 16.0309 26.4853L16.0161 26.5094L16.3779 25.907C16.5684 25.5937 16.8749 25.3737 17.2321 25.302L17.2414 25.2999L17.2378 25.3009C17.3243 25.2815 17.4108 25.2723 17.4978 25.2723C17.6124 25.2723 17.7265 25.2887 17.8396 25.3204L17.8458 25.3224C17.9891 25.3603 18.1252 25.4258 18.2552 25.518L18.2747 25.5323L22.8625 27.9582L24.8053 27.8528L24.7684 27.1721V27.1715L23.0145 27.2662L22.1091 26.7877L28.0865 18.0502C28.2574 18.1326 28.4263 18.2206 28.5911 18.3169C29.4181 18.7949 30.151 19.4346 30.5113 20.0314L30.5216 20.0494L35.7461 26.6659L38.3226 26.8799V35.6291Z" fill="white"></path></g><defs><clipPath id="clip0_41_85"><rect width="30" height="30" fill="white" transform="translate(10 10)"></rect></clipPath></defs></svg>