<svg xmlns="http://www.w3.org/2000/svg" width="51" height="51" viewBox="0 0 51 51" fill="none"><rect x="0.0273438" y="0.330566" width="50" height="50" rx="25" fill="#4268FF"></rect><g clip-path="url(#clip0_41_78)"><path d="M33.1926 13.1892C29.2614 8.91189 22.6276 9.19794 18.2165 12.4976C14.4564 15.3104 11.7997 21.556 14.9595 25.8063C15.6054 26.675 16.5518 27.2049 17.5996 27.4201C17.8793 27.4776 18.1041 27.3411 18.202 27.078C18.414 26.5096 18.6401 25.9759 18.6889 25.3672C18.7076 25.1351 18.5212 25.0046 18.3276 24.9946C15.4618 21.8471 17.4084 17.9302 20.2011 15.508C22.6702 13.3667 27.2042 11.3602 30.1063 13.8274C32.109 15.53 32.2616 18.7115 32.1656 21.1153C32.0452 24.13 30.9919 27.3077 27.862 28.2666C26.8314 28.5823 25.639 28.457 24.9549 27.5495C24.1821 26.5244 24.43 25.2887 24.7228 24.1582C25.1737 22.4176 26.2422 19.9534 25.2302 18.2315C24.005 16.1468 21.5371 18.0424 20.8244 19.4463C20.3903 20.3014 19.6084 23.0403 20.7623 23.7426C19.5362 26.8437 18.709 30.2517 18.1495 33.5228C17.8983 34.9918 17.6669 36.6082 17.9451 38.0899C17.9599 38.1685 18.277 39.2828 18.5944 39.7184C18.5449 39.9994 18.9594 40.1009 19.1246 39.8799C20.2535 38.3687 21.4099 36.9214 22.0327 35.1181C22.3635 34.1601 22.4865 33.1105 22.6846 32.1191C22.8233 31.4247 23.1075 30.6349 23.1795 29.8949C23.1839 29.8941 23.1881 29.8923 23.1927 29.8917C24.1673 30.6405 25.4787 31.2743 26.6367 31.4994C28.4578 31.8532 30.6043 31.1753 32.0917 30.1472C32.3191 29.99 32.5464 29.8009 32.7656 29.5896C33.4531 29.1316 34.0799 28.5375 34.6156 27.7884C37.6973 23.4792 36.651 16.9524 33.1926 13.1892ZM17.6778 25.7067C17.7025 25.7331 17.7284 25.7548 17.7545 25.7739C17.7382 25.8103 17.72 25.846 17.7029 25.882C17.666 25.8338 17.6271 25.787 17.5894 25.7391C17.5977 25.6944 17.597 25.6491 17.5868 25.6035C17.6179 25.6377 17.6458 25.6726 17.6778 25.7067ZM15.7645 17.1707C15.4763 17.671 15.2318 18.1858 15.0305 18.7172C15.1904 18.1451 15.4058 17.5915 15.673 17.0585C15.7118 17.0749 15.754 17.0852 15.7981 17.0909C15.7864 17.1172 15.7759 17.1442 15.7645 17.1707ZM33.2858 15.0352C33.2401 14.9759 33.1854 14.9293 33.1253 14.8931C33.1119 14.8738 33.0951 14.8601 33.0799 14.8432C33.0606 14.7783 33.0378 14.7173 33.017 14.654C33.1915 14.8781 33.3593 15.1084 33.5149 15.3479C33.4409 15.2427 33.3655 15.1383 33.2858 15.0352Z" fill="white"></path></g><defs><clipPath id="clip0_41_78"><rect width="30" height="30" fill="white" transform="translate(10 10)"></rect></clipPath></defs></svg>