<svg xmlns="http://www.w3.org/2000/svg" width="51" height="51" viewBox="0 0 51 51" fill="none"><rect x="0.0273438" y="0.330566" width="50" height="50" rx="25" fill="#4268FF"></rect><path d="M25 37.807C31.9936 37.807 37.807 32.0062 37.807 25.0001C37.807 18.0065 31.9811 12.1931 24.9875 12.1931C17.9813 12.1931 12.1931 18.0065 12.1931 25.0001C12.1931 32.0062 17.9939 37.807 25 37.807ZM25 35.6725C19.0737 35.6725 14.3401 30.9264 14.3401 25.0001C14.3401 19.0863 19.0611 14.3276 24.9875 14.3276C30.9012 14.3276 35.6599 19.0863 35.6725 25.0001C35.6851 30.9264 30.9138 35.6725 25 35.6725ZM23.418 32.7093L30.1102 24.209C30.6376 23.5436 30.399 23.0037 29.721 23.0037H26.3184L27.2851 17.7805C27.4107 17.0523 26.6323 16.7132 26.1552 17.3033L19.4755 25.8036C18.9356 26.4691 19.1741 27.0215 19.8647 27.0215H23.2548L22.3005 32.2447C22.1624 32.973 22.9409 33.312 23.418 32.7093Z" fill="white"></path></svg>