<svg xmlns="http://www.w3.org/2000/svg" width="51" height="51" viewBox="0 0 51 51" fill="none"><rect x="0.0546875" y="0.821411" width="50" height="50" rx="25" fill="#4268FF"></rect><path d="M26.6251 34.9375H23.3751C22.9441 34.9375 22.5308 34.7663 22.226 34.4615C21.9213 34.1568 21.7501 33.7435 21.7501 33.3125V30.1925C20.2617 29.5438 19.0019 28.4641 18.1329 27.0927C17.264 25.7212 16.8259 24.1209 16.8751 22.4981C16.9646 20.4388 17.8228 18.4878 19.2804 17.0303C20.7379 15.5728 22.6889 14.7145 24.7482 14.625C25.8362 14.5913 26.9199 14.7765 27.9349 15.1697C28.9499 15.5628 29.8756 16.156 30.657 16.9138C31.4383 17.6717 32.0594 18.5788 32.4834 19.5814C32.9074 20.584 33.1256 21.6615 33.1251 22.75C33.1243 24.3302 32.6627 25.8759 31.7968 27.1978C30.9309 28.5197 29.6984 29.5604 28.2501 30.1925V33.3125C28.2501 33.7435 28.0789 34.1568 27.7741 34.4615C27.4694 34.7663 27.056 34.9375 26.6251 34.9375ZM24.7969 16.25C23.1505 16.3235 21.5912 17.0105 20.4259 18.1758C19.2605 19.3412 18.5735 20.9005 18.5001 22.5469C18.4574 23.9248 18.854 25.2806 19.6325 26.4183C20.4109 27.556 21.5309 28.4168 22.8307 28.8763C22.9892 28.9317 23.1267 29.0349 23.2242 29.1716C23.3217 29.3084 23.3744 29.472 23.3751 29.64V33.3125H26.6251V29.64C26.6257 29.472 26.6784 29.3084 26.7759 29.1716C26.8734 29.0349 27.0109 28.9317 27.1694 28.8763C28.6327 28.3599 29.8631 27.3372 30.638 25.9928C31.413 24.6485 31.6814 23.0713 31.3949 21.5463C31.1083 20.0212 30.2857 18.649 29.0756 17.6777C27.8655 16.7063 26.3478 16.1999 24.7969 16.25Z" fill="white"></path><path d="M24.1875 32.5V28.8275C22.7252 28.3113 21.4648 27.3436 20.5886 26.0642C19.7123 24.7848 19.2654 23.26 19.3125 21.71C19.3856 19.2725 20.7018 17.7043 22.985 16.575C19.7106 16.6318 17.785 19.5 17.6875 22.5225C17.6404 24.0725 18.0873 25.5973 18.9636 26.8767C19.8398 28.1561 21.1002 29.1238 22.5625 29.64V33.3125C22.5625 33.5279 22.6481 33.7346 22.8004 33.887C22.9528 34.0394 23.1595 34.125 23.375 34.125H26.625C26.8404 34.125 27.0471 34.0394 27.1995 33.887C27.3519 33.7346 27.4375 33.5279 27.4375 33.3125H25C24.7845 33.3125 24.5778 33.2269 24.4254 33.0745C24.2731 32.9221 24.1875 32.7154 24.1875 32.5Z" fill="white"></path><path d="M27.4375 37.375H22.5625C22.347 37.375 22.1403 37.2894 21.988 37.137C21.8356 36.9847 21.75 36.778 21.75 36.5625C21.75 36.347 21.8356 36.1403 21.988 35.988C22.1403 35.8356 22.347 35.75 22.5625 35.75H27.4375C27.653 35.75 27.8597 35.8356 28.012 35.988C28.1644 36.1403 28.25 36.347 28.25 36.5625C28.25 36.778 28.1644 36.9847 28.012 37.137C27.8597 37.2894 27.653 37.375 27.4375 37.375Z" fill="white"></path><path d="M28.9406 22.3194C28.8674 22.2023 28.7656 22.1058 28.6448 22.039C28.5239 21.9722 28.3881 21.9373 28.25 21.9375H27.3319L28.1444 20.7594C28.2219 20.6395 28.2665 20.5013 28.2737 20.3586C28.2808 20.216 28.2502 20.074 28.185 19.9469C28.1156 19.8092 28.0085 19.694 27.8762 19.6149C27.7438 19.5357 27.5916 19.4959 27.4375 19.5H24.1875C24.0374 19.5005 23.8905 19.5425 23.7628 19.6214C23.6352 19.7002 23.5319 19.8129 23.4644 19.9469L21.0269 24.8219C20.9645 24.9456 20.9349 25.0832 20.9407 25.2216C20.9465 25.3599 20.9875 25.4945 21.06 25.6126C21.1324 25.7306 21.2339 25.8282 21.3546 25.896C21.4754 25.9638 21.6115 25.9996 21.75 26H24.1875V29.25C24.1825 29.4368 24.242 29.6195 24.3559 29.7675C24.4699 29.9154 24.6313 30.0197 24.8131 30.0625C24.8751 30.0705 24.9379 30.0705 25 30.0625C25.15 30.0621 25.297 30.0201 25.4246 29.9412C25.5523 29.8623 25.6556 29.7497 25.7231 29.6157L28.9731 23.1157C29.0365 22.9913 29.0669 22.8528 29.0612 22.7133C29.0555 22.5738 29.014 22.4382 28.9406 22.3194Z" fill="white"></path><path d="M16.0627 17.875C15.9557 17.8756 15.8497 17.8552 15.7507 17.8147C15.6517 17.7743 15.5617 17.7147 15.4858 17.6394L13.8608 16.0144C13.7078 15.8614 13.6218 15.6539 13.6218 15.4375C13.6218 15.3304 13.6429 15.2243 13.6839 15.1253C13.7249 15.0263 13.785 14.9364 13.8608 14.8607C13.9365 14.7849 14.0265 14.7248 14.1254 14.6838C14.2244 14.6428 14.3305 14.6217 14.4377 14.6217C14.654 14.6217 14.8615 14.7077 15.0145 14.8607L16.6395 16.4857C16.7157 16.5612 16.7761 16.651 16.8174 16.7501C16.8586 16.8491 16.8799 16.9553 16.8799 17.0625C16.8799 17.1698 16.8586 17.276 16.8174 17.375C16.7761 17.474 16.7157 17.5639 16.6395 17.6394C16.5636 17.7147 16.4736 17.7743 16.3746 17.8147C16.2756 17.8552 16.1696 17.8756 16.0627 17.875Z" fill="white"></path><path d="M15.25 23.5625H14.4375C14.222 23.5625 14.0153 23.4769 13.863 23.3245C13.7106 23.1722 13.625 22.9655 13.625 22.75C13.625 22.5345 13.7106 22.3278 13.863 22.1755C14.0153 22.0231 14.222 21.9375 14.4375 21.9375H15.25C15.4655 21.9375 15.6722 22.0231 15.8245 22.1755C15.9769 22.3278 16.0625 22.5345 16.0625 22.75C16.0625 22.9655 15.9769 23.1722 15.8245 23.3245C15.6722 23.4769 15.4655 23.5625 15.25 23.5625Z" fill="white"></path><path d="M14.4376 30.0625C14.3306 30.0631 14.2246 30.0427 14.1256 30.0022C14.0267 29.9618 13.9366 29.9022 13.8607 29.8269C13.7845 29.7514 13.7241 29.6615 13.6828 29.5625C13.6416 29.4635 13.6204 29.3573 13.6204 29.25C13.6204 29.1428 13.6416 29.0366 13.6828 28.9376C13.7241 28.8385 13.7845 28.7487 13.8607 28.6732L15.4857 27.0482C15.6387 26.8952 15.8462 26.8092 16.0626 26.8092C16.2789 26.8092 16.4865 26.8952 16.6394 27.0482C16.7924 27.2012 16.8784 27.4087 16.8784 27.625C16.8784 27.8414 16.7924 28.0489 16.6394 28.2019L15.0144 29.8269C14.9385 29.9022 14.8485 29.9618 14.7495 30.0022C14.6505 30.0427 14.5445 30.0631 14.4376 30.0625Z" fill="white"></path><path d="M33.9376 17.875C33.8306 17.8756 33.7246 17.8552 33.6256 17.8147C33.5267 17.7743 33.4366 17.7147 33.3607 17.6394C33.2845 17.5639 33.2241 17.474 33.1828 17.375C33.1416 17.276 33.1204 17.1698 33.1204 17.0625C33.1204 16.9553 33.1416 16.8491 33.1828 16.7501C33.2241 16.651 33.2845 16.5612 33.3607 16.4857L34.9857 14.8607C35.1387 14.7077 35.3462 14.6217 35.5626 14.6217C35.7789 14.6217 35.9864 14.7077 36.1394 14.8607C36.2924 15.0137 36.3784 15.2212 36.3784 15.4375C36.3784 15.6539 36.2924 15.8614 36.1394 16.0144L34.5144 17.6394C34.4385 17.7147 34.3485 17.7743 34.2495 17.8147C34.1505 17.8552 34.0445 17.8756 33.9376 17.875Z" fill="white"></path><path d="M35.5625 23.5625H34.75C34.5345 23.5625 34.3278 23.4769 34.1755 23.3245C34.0231 23.1722 33.9375 22.9655 33.9375 22.75C33.9375 22.5345 34.0231 22.3278 34.1755 22.1755C34.3278 22.0231 34.5345 21.9375 34.75 21.9375H35.5625C35.778 21.9375 35.9847 22.0231 36.137 22.1755C36.2894 22.3278 36.375 22.5345 36.375 22.75C36.375 22.9655 36.2894 23.1722 36.137 23.3245C35.9847 23.4769 35.778 23.5625 35.5625 23.5625Z" fill="white"></path><path d="M35.5627 30.0625C35.4557 30.0631 35.3497 30.0427 35.2507 30.0022C35.1517 29.9618 35.0617 29.9022 34.9858 29.8269L33.3608 28.2019C33.2078 28.0489 33.1218 27.8414 33.1218 27.625C33.1218 27.4087 33.2078 27.2012 33.3608 27.0482C33.5138 26.8952 33.7213 26.8092 33.9377 26.8092C34.154 26.8092 34.3615 26.8952 34.5145 27.0482L36.1395 28.6732C36.2157 28.7487 36.2761 28.8385 36.3174 28.9376C36.3586 29.0366 36.3799 29.1428 36.3799 29.25C36.3799 29.3573 36.3586 29.4635 36.3174 29.5625C36.2761 29.6615 36.2157 29.7514 36.1395 29.8269C36.0636 29.9022 35.9736 29.9618 35.8746 30.0022C35.7756 30.0427 35.6696 30.0631 35.5627 30.0625Z" fill="white"></path></svg>