<svg xmlns="http://www.w3.org/2000/svg" width="51" height="51" viewBox="0 0 51 51" fill="none"><rect x="0.0273438" y="0.330566" width="50" height="50" rx="25" fill="#4268FF"></rect><path d="M11 14.2837V35.7162H39V14.2837H11ZM38.1457 16.4854H17.9947V17.3397H38.1457V34.8619H11.8543V34.8619V15.138H38.1457V16.4854H38.1457Z" fill="white"></path><path d="M13.6095 16.4851H12.7551V17.3394H13.6095V16.4851Z" fill="white"></path><path d="M15.3749 16.4851H14.4636V17.3394H15.3749V16.4851Z" fill="white"></path><path d="M17.1403 16.4851H16.229V17.3394H17.1403V16.4851Z" fill="white"></path><path d="M13.1892 18.6621V33.5272H19.2975V18.6621H13.1892ZM18.4432 32.6729H14.0435V25.583C14.5995 26.161 15.3799 26.5218 16.2434 26.5218C17.1069 26.5218 17.8872 26.1611 18.4432 25.583V32.6729ZM16.2434 25.6675C15.0303 25.6675 14.0435 24.6806 14.0435 23.4677C14.0435 22.2546 15.0303 21.2679 16.2434 21.2679C17.4564 21.2679 18.4432 22.2547 18.4432 23.4677C18.4432 24.6806 17.4564 25.6675 16.2434 25.6675ZM18.4432 21.3523C17.8871 20.7743 17.1069 20.4135 16.2434 20.4135C15.3799 20.4135 14.5995 20.7744 14.0435 21.3524V19.5165H18.4432V21.3523Z" fill="white"></path><path d="M20.6323 18.6621V25.6461H31.1296V24.7918H21.4866V19.5164H32.8917V23.0298H33.746V18.6621H20.6323Z" fill="white"></path><path d="M30.695 26.9646H20.6143V27.8189H30.695V26.9646Z" fill="white"></path><path d="M21.9242 28.7302H20.6143V29.5846H21.9242V28.7302Z" fill="white"></path><path d="M24.9997 30.04H20.6143V30.8944H24.9997V30.04Z" fill="white"></path><path d="M28.0752 30.04H25.854V30.8944H28.0752V30.04Z" fill="white"></path><path d="M33.3149 30.04H28.9294V30.8944H33.3149V30.04Z" fill="white"></path><path d="M27.1639 31.3501H20.6143V32.2044H27.1639V31.3501Z" fill="white"></path><path d="M30.2394 32.6599H20.6143V33.5142H30.2394V32.6599Z" fill="white"></path><path d="M36.2517 25.3503L32.6367 23.1812C32.2472 22.9476 31.7511 23.0086 31.4298 23.3298C31.1087 23.6509 31.0477 24.1472 31.2813 24.5366L33.4504 28.1517C33.6117 28.4206 33.8952 28.581 34.2087 28.581C34.5222 28.581 34.8057 28.4205 34.967 28.1517L35.0063 28.0862L35.1177 27.4959C35.1639 27.2514 35.3515 27.0637 35.596 27.0176L36.1864 26.9062L36.252 26.8669C36.5208 26.7056 36.6812 26.422 36.6812 26.1085C36.6811 25.7951 36.5206 25.5116 36.2517 25.3503ZM35.4376 26.1781C34.845 26.2899 34.39 26.745 34.2781 27.3376L34.2047 27.7267C34.1908 27.7254 34.1859 27.7173 34.1829 27.7123L32.0138 24.0972C31.9822 24.0446 31.9905 23.9774 32.0339 23.934C32.0597 23.9082 32.0939 23.8948 32.1284 23.8948C32.152 23.8948 32.1758 23.9011 32.1972 23.9139L35.8123 26.0829C35.8174 26.0859 35.8255 26.0908 35.8268 26.1048L35.4376 26.1781Z" fill="white"></path><path d="M17.539 30.8945H14.9192V31.7489H17.539V30.8945Z" fill="white"></path><path d="M17.539 27.4202H14.9192V28.2745H17.539V27.4202Z" fill="white"></path><path d="M17.539 29.1858H14.9192V30.0401H17.539V29.1858Z" fill="white"></path></svg>