<svg xmlns="http://www.w3.org/2000/svg" width="61" height="61" viewBox="0 0 61 61" fill="none"><rect x="0.0546875" y="0.131104" width="60" height="60" rx="8" fill="white"></rect><path d="M49.0809 30.8007L33.5094 15.7399L32 14.28L20.2784 25.6172L14.9191 30.8007C14.3603 31.3418 14.3603 32.2183 14.9191 32.7594L25.6281 43.1172L32 49.28L43.7216 37.9429L43.9031 37.7674L49.0809 32.7594C49.6397 32.2183 49.6397 31.3418 49.0809 30.8007ZM32 36.9543L26.6502 31.78L32 26.6058L37.3497 31.78L32 36.9543Z" fill="#2684FF"></path><path fill-rule="evenodd" clip-rule="evenodd" d="M31.9999 26.6058C28.4974 23.2176 28.4802 17.73 31.9617 14.3215L20.2544 25.6402L26.6262 31.803L31.9999 26.6058Z" fill="url(#paint0_linear_2_709)"></path><path fill-rule="evenodd" clip-rule="evenodd" d="M37.364 31.7661L32 36.9541C33.6906 38.5884 34.6405 40.8054 34.6405 43.117C34.6405 45.4287 33.6906 47.6457 32 49.28L43.736 37.929L37.364 31.7661Z" fill="url(#paint1_linear_2_709)"></path><defs><linearGradient id="paint0_linear_2_709" x1="31.0446" y1="21.3714" x2="22.1206" y2="25.2678" gradientUnits="userSpaceOnUse"><stop offset="0.18" stop-color="#0052CC"></stop><stop offset="1" stop-color="#2684FF"></stop></linearGradient><linearGradient id="paint1_linear_2_709" x1="33.0221" y1="42.1284" x2="41.9301" y2="38.2596" gradientUnits="userSpaceOnUse"><stop offset="0.18" stop-color="#0052CC"></stop><stop offset="1" stop-color="#2684FF"></stop></linearGradient></defs></svg>