<svg xmlns="http://www.w3.org/2000/svg" width="61" height="61" viewBox="0 0 61 61" fill="none"><rect x="0.0546875" y="0.131104" width="60" height="60" rx="8" fill="white"></rect><path fill-rule="evenodd" clip-rule="evenodd" d="M30 31C30 27.5483 32.7983 24.75 36.25 24.75C39.7017 24.75 42.5 27.5483 42.5 31C42.5 34.4517 39.7017 37.25 36.25 37.25C32.7983 37.25 30 34.4517 30 31Z" fill="#1ABCFE"></path><path fill-rule="evenodd" clip-rule="evenodd" d="M17.5 43.5C17.5 40.0483 20.2982 37.25 23.75 37.25H30V43.5C30 46.9517 27.2017 49.75 23.75 49.75C20.2982 49.75 17.5 46.9517 17.5 43.5Z" fill="#0ACF83"></path><path fill-rule="evenodd" clip-rule="evenodd" d="M30 12.25V24.75H36.25C39.7017 24.75 42.5 21.9517 42.5 18.5C42.5 15.0482 39.7017 12.25 36.25 12.25H30Z" fill="#FF7262"></path><path fill-rule="evenodd" clip-rule="evenodd" d="M17.5 18.5C17.5 21.9517 20.2982 24.75 23.75 24.75H30V12.25H23.75C20.2982 12.25 17.5 15.0482 17.5 18.5Z" fill="#F24E1E"></path><path fill-rule="evenodd" clip-rule="evenodd" d="M17.5 31C17.5 34.4517 20.2982 37.25 23.75 37.25H30V24.75H23.75C20.2982 24.75 17.5 27.5483 17.5 31Z" fill="#A259FF"></path></svg>