<svg xmlns="http://www.w3.org/2000/svg" width="61" height="61" viewBox="0 0 61 61" fill="none"><rect x="0.0546875" y="0.131104" width="60" height="60" rx="8" fill="white"></rect><rect width="40" height="40" transform="translate(13 11.78)" fill="white"></rect><g clip-path="url(#clip0_2_705)"><mask id="mask0_2_705" style="mask-type:luminance" maskUnits="userSpaceOnUse" x="13" y="14" width="34" height="35"><path d="M13 14.78H47V48.78H13V14.78Z" fill="white"></path></mask><g mask="url(#mask0_2_705)"><path fill-rule="evenodd" clip-rule="evenodd" d="M34.6324 14.8347L15.7787 16.2464C14.2537 16.3555 13.7083 17.3868 13.7083 18.5818V39.2212C13.7083 40.1442 14.0355 40.9587 14.8522 41.9908L19.2665 47.7481C19.9749 48.6718 20.6832 48.8885 22.0453 48.7802L43.9505 47.4768C45.8035 47.3677 46.3483 46.4993 46.3483 45.0331V21.7856C46.3483 21.0255 46.0755 20.8081 45.1498 20.1564C45.0952 20.1019 45.0407 20.1019 44.9861 20.048L38.9922 15.866C37.5755 14.7802 36.9756 14.6718 34.6324 14.8347ZM22.5355 21.4066C20.7378 21.515 20.356 21.5695 19.3211 20.7004L16.7598 18.6902C16.487 18.4182 16.5968 18.0923 17.3052 18.0385L35.4498 16.7352C36.9756 16.6261 37.7385 17.1148 38.3384 17.6036L41.4445 19.8306C41.6074 19.8851 41.9346 20.2648 41.4983 20.2648L22.7537 21.4059L22.5355 21.4066ZM20.4658 44.8156V25.0999C20.4658 24.2307 20.7385 23.8504 21.5013 23.7965L43.0248 22.547C43.7331 22.4925 44.0603 22.9274 44.0603 23.7958V43.3487C44.0603 44.2178 43.8974 44.924 42.7528 44.9778L22.1544 46.1735C21.0105 46.2819 20.4658 45.8477 20.4658 44.8156ZM40.7907 26.1864C40.8998 26.7836 40.7907 27.3807 40.1914 27.4352L39.2104 27.652V42.2082C38.3391 42.697 37.5763 42.9144 36.9225 42.9144C35.8869 42.9144 35.6142 42.5886 34.7975 41.6111L28.2574 31.3998V41.2307L30.3279 41.7195C30.3279 41.7195 30.3279 42.9144 28.693 42.9144L24.1158 43.1857C24.0067 42.9144 24.1158 42.2628 24.5521 42.1537L25.7506 41.8279V28.7931L24.1158 28.6302C24.0067 28.0324 24.334 27.1639 25.2605 27.1094L30.1643 26.7836L36.9218 37.1026V27.9785L35.1778 27.7611C35.0688 27.0549 35.5589 26.5116 36.2127 26.4577L40.79 26.1857L40.7907 26.1864Z" fill="black"></path></g></g><defs><clipPath id="clip0_2_705"><rect width="34" height="34" fill="white" transform="translate(13 14.78)"></rect></clipPath></defs></svg>