<svg xmlns="http://www.w3.org/2000/svg" width="33" height="33" viewBox="0 0 33 33" fill="none"><path d="M25.2213 8.94136C24.4233 9.50426 23.5397 9.93479 22.6046 10.2164C22.1027 9.63929 21.4357 9.23027 20.6938 9.04463C19.9519 8.859 19.1709 8.90569 18.4563 9.17841C17.7418 9.45112 17.1283 9.9367 16.6988 10.5695C16.2692 11.2022 16.0444 11.9516 16.0546 12.7164V13.5497C14.5901 13.5877 13.139 13.2629 11.8304 12.6042C10.5219 11.9456 9.39654 10.9736 8.55461 9.7747C8.55461 9.7747 5.22127 17.2747 12.7213 20.608C11.005 21.773 8.96057 22.3571 6.88794 22.2747C14.3879 26.4414 23.5546 22.2747 23.5546 12.6914C23.5538 12.4592 23.5315 12.2277 23.4879 11.9997C24.3384 11.1609 24.9386 10.102 25.2213 8.94136Z" stroke="#4268FF" stroke-width="1.66667" stroke-linecap="round" stroke-linejoin="round"></path></svg>