<svg xmlns="http://www.w3.org/2000/svg" width="37" height="37" viewBox="0 0 37 37" fill="none"><rect x="0.0546875" y="0.661377" width="36" height="36" rx="6" fill="#272829"></rect><path d="M17.2214 11.9948H11.3881C10.9461 11.9948 10.5222 12.1703 10.2096 12.4829C9.89703 12.7955 9.72144 13.2194 9.72144 13.6614V25.3281C9.72144 25.7701 9.89703 26.194 10.2096 26.5066C10.5222 26.8192 10.9461 26.9948 11.3881 26.9948H23.0548C23.4968 26.9948 23.9207 26.8192 24.2333 26.5066C24.5458 26.194 24.7214 25.7701 24.7214 25.3281V19.4948" stroke="white" stroke-width="1.66667" stroke-linecap="round" stroke-linejoin="round"></path><path d="M23.4714 10.7447C23.803 10.4132 24.2526 10.2269 24.7214 10.2269C25.1903 10.2269 25.6399 10.4132 25.9714 10.7447C26.303 11.0762 26.4892 11.5259 26.4892 11.9947C26.4892 12.4635 26.303 12.9132 25.9714 13.2447L18.0548 21.1614L14.7214 21.9947L15.5548 18.6614L23.4714 10.7447Z" stroke="white" stroke-width="1.66667" stroke-linecap="round" stroke-linejoin="round"></path></svg>