<svg xmlns="http://www.w3.org/2000/svg" width="33" height="33" viewBox="0 0 33 33" fill="none"><path d="M20.2214 8.10803H11.8881C9.58692 8.10803 7.72144 9.97351 7.72144 12.2747V20.608C7.72144 22.9092 9.58692 24.7747 11.8881 24.7747H20.2214C22.5226 24.7747 24.3881 22.9092 24.3881 20.608V12.2747C24.3881 9.97351 22.5226 8.10803 20.2214 8.10803Z" stroke="#4268FF" stroke-width="1.66667" stroke-linecap="round" stroke-linejoin="round"></path><path d="M19.3879 15.9164C19.4908 16.61 19.3723 17.3183 19.0494 17.9406C18.7265 18.5629 18.2156 19.0676 17.5893 19.3828C16.963 19.698 16.2533 19.8077 15.5611 19.6964C14.8689 19.585 14.2294 19.2581 13.7336 18.7624C13.2379 18.2666 12.911 17.6271 12.7997 16.9349C12.6883 16.2427 12.798 15.533 13.1132 14.9067C13.4284 14.2805 13.9331 13.7695 14.5554 13.4466C15.1778 13.1237 15.8861 13.0052 16.5796 13.1081C17.287 13.213 17.942 13.5426 18.4477 14.0483C18.9534 14.554 19.283 15.209 19.3879 15.9164Z" stroke="#4268FF" stroke-width="1.66667" stroke-linecap="round" stroke-linejoin="round"></path><path d="M20.6379 11.858H20.6463" stroke="#4268FF" stroke-width="1.66667" stroke-linecap="round" stroke-linejoin="round"></path></svg>