<svg xmlns="http://www.w3.org/2000/svg" width="36" height="36" viewBox="0 0 36 36" fill="none"><path d="M17.1667 11.3334H11.3334C10.8914 11.3334 10.4675 11.509 10.1549 11.8215C9.84234 12.1341 9.66675 12.558 9.66675 13V24.6667C9.66675 25.1087 9.84234 25.5327 10.1549 25.8452C10.4675 26.1578 10.8914 26.3334 11.3334 26.3334H23.0001C23.4421 26.3334 23.866 26.1578 24.1786 25.8452C24.4912 25.5327 24.6667 25.1087 24.6667 24.6667V18.8334" stroke="white" stroke-width="1.66667" stroke-linecap="round" stroke-linejoin="round"></path><path d="M23.4167 10.0833C23.7483 9.7518 24.1979 9.56555 24.6667 9.56555C25.1356 9.56555 25.5852 9.7518 25.9167 10.0833C26.2483 10.4148 26.4345 10.8645 26.4345 11.3333C26.4345 11.8022 26.2483 12.2518 25.9167 12.5833L18.0001 20.5L14.6667 21.3333L15.5001 18L23.4167 10.0833Z" stroke="white" stroke-width="1.66667" stroke-linecap="round" stroke-linejoin="round"></path></svg>