<svg xmlns="http://www.w3.org/2000/svg" width="36" height="36" viewBox="0 0 36 36" fill="none"><path d="M24.6667 13.8334H11.3334C10.4129 13.8334 9.66675 14.5796 9.66675 15.5V23.8334C9.66675 24.7538 10.4129 25.5 11.3334 25.5H24.6667C25.5872 25.5 26.3334 24.7538 26.3334 23.8334V15.5C26.3334 14.5796 25.5872 13.8334 24.6667 13.8334Z" stroke="white" stroke-width="1.66667" stroke-linecap="round" stroke-linejoin="round"></path><path d="M21.3334 25.5V12.1667C21.3334 11.7246 21.1578 11.3007 20.8453 10.9882C20.5327 10.6756 20.1088 10.5 19.6667 10.5H16.3334C15.8914 10.5 15.4675 10.6756 15.1549 10.9882C14.8423 11.3007 14.6667 11.7246 14.6667 12.1667V25.5" stroke="white" stroke-width="1.66667" stroke-linecap="round" stroke-linejoin="round"></path></svg>