<svg xmlns="http://www.w3.org/2000/svg" width="37" height="37" viewBox="0 0 37 37" fill="none"><rect x="0.0546875" y="0.661377" width="36" height="36" rx="6" fill="#272829"></rect><path d="M26.3881 24.4947C26.3881 24.9367 26.2125 25.3607 25.8999 25.6732C25.5874 25.9858 25.1635 26.1614 24.7214 26.1614H11.3881C10.9461 26.1614 10.5222 25.9858 10.2096 25.6732C9.89703 25.3607 9.72144 24.9367 9.72144 24.4947V12.828C9.72144 12.386 9.89703 11.9621 10.2096 11.6495C10.5222 11.337 10.9461 11.1614 11.3881 11.1614H15.5548L17.2214 13.6614H24.7214C25.1635 13.6614 25.5874 13.837 25.8999 14.1495C26.2125 14.4621 26.3881 14.886 26.3881 15.328V24.4947Z" stroke="white" stroke-width="1.66667" stroke-linecap="round" stroke-linejoin="round"></path></svg>