<svg xmlns="http://www.w3.org/2000/svg" width="37" height="37" viewBox="0 0 37 37" fill="none"><rect x="0.0546875" y="0.661377" width="36" height="36" rx="6" fill="#272829"></rect><path d="M20.3046 13.9113C20.1519 14.0671 20.0664 14.2765 20.0664 14.4947C20.0664 14.7128 20.1519 14.9222 20.3046 15.078L21.6379 16.4113C21.7937 16.564 22.0031 16.6495 22.2212 16.6495C22.4394 16.6495 22.6488 16.564 22.8046 16.4113L25.9462 13.2697C26.3653 14.1956 26.4921 15.2273 26.3099 16.2273C26.1278 17.2272 25.6452 18.1479 24.9265 18.8666C24.2078 19.5852 23.2871 20.0678 22.2872 20.25C21.2873 20.4322 20.2556 20.3053 19.3296 19.8863L13.5712 25.6447C13.2397 25.9762 12.7901 26.1624 12.3212 26.1624C11.8524 26.1624 11.4028 25.9762 11.0712 25.6447C10.7397 25.3131 10.5535 24.8635 10.5535 24.3947C10.5535 23.9258 10.7397 23.4762 11.0712 23.1447L16.8296 17.3863C16.4105 16.4603 16.2837 15.4286 16.4659 14.4287C16.648 13.4288 17.1306 12.5081 17.8493 11.7894C18.568 11.0707 19.4887 10.5881 20.4886 10.4059C21.4885 10.2237 22.5202 10.3506 23.4462 10.7697L20.3129 13.903L20.3046 13.9113Z" stroke="white" stroke-width="1.66667" stroke-linecap="round" stroke-linejoin="round"></path></svg>