<svg xmlns="http://www.w3.org/2000/svg" width="36" height="36" viewBox="0 0 36 36" fill="none"><path d="M20.2499 13.2499C20.0972 13.4057 20.0117 13.6151 20.0117 13.8333C20.0117 14.0514 20.0972 14.2608 20.2499 14.4166L21.5832 15.7499C21.739 15.9026 21.9484 15.9882 22.1665 15.9882C22.3847 15.9882 22.5941 15.9026 22.7499 15.7499L25.8915 12.6083C26.3106 13.5343 26.4374 14.566 26.2553 15.5659C26.0731 16.5658 25.5905 17.4865 24.8718 18.2052C24.1531 18.9239 23.2324 19.4065 22.2325 19.5887C21.2326 19.7708 20.2009 19.644 19.2749 19.2249L13.5165 24.9833C13.185 25.3148 12.7354 25.501 12.2665 25.501C11.7977 25.501 11.3481 25.3148 11.0165 24.9833C10.685 24.6518 10.4988 24.2021 10.4988 23.7333C10.4988 23.2644 10.685 22.8148 11.0165 22.4833L16.7749 16.7249C16.3558 15.799 16.229 14.7672 16.4112 13.7673C16.5934 12.7674 17.076 11.8467 17.7946 11.128C18.5133 10.4093 19.434 9.92675 20.4339 9.74456C21.4339 9.56237 22.4656 9.68925 23.3915 10.1083L20.2582 13.2416L20.2499 13.2499Z" stroke="white" stroke-width="1.66667" stroke-linecap="round" stroke-linejoin="round"></path></svg>