<svg xmlns="http://www.w3.org/2000/svg" width="37" height="37" viewBox="0 0 37 37" fill="none"><rect x="0.0546875" y="0.661377" width="36" height="36" rx="6" fill="#272829"></rect><path d="M24.7214 14.4948H11.3881C10.4676 14.4948 9.72144 15.2409 9.72144 16.1614V24.4948C9.72144 25.4152 10.4676 26.1614 11.3881 26.1614H24.7214C25.6419 26.1614 26.3881 25.4152 26.3881 24.4948V16.1614C26.3881 15.2409 25.6419 14.4948 24.7214 14.4948Z" stroke="white" stroke-width="1.66667" stroke-linecap="round" stroke-linejoin="round"></path><path d="M21.3881 26.1614V12.828C21.3881 12.386 21.2125 11.9621 20.8999 11.6495C20.5874 11.337 20.1635 11.1614 19.7214 11.1614H16.3881C15.9461 11.1614 15.5222 11.337 15.2096 11.6495C14.897 11.9621 14.7214 12.386 14.7214 12.828V26.1614" stroke="white" stroke-width="1.66667" stroke-linecap="round" stroke-linejoin="round"></path></svg>