<svg xmlns="http://www.w3.org/2000/svg" width="61" height="61" viewBox="0 0 61 61" fill="none"><rect x="0.0546875" y="0.131104" width="60" height="60" rx="8" fill="white"></rect><g clip-path="url(#clip0_2_701)"><path d="M10 24.4761C10 19.409 10 16.8755 10.9861 14.9401C11.8536 13.2377 13.2377 11.8536 14.9401 10.9861C16.8755 10 19.409 10 24.4761 10H35.5239C40.591 10 43.1246 10 45.0599 10.9861C46.7623 11.8536 48.1464 13.2377 49.0139 14.9401C50 16.8755 50 19.409 50 24.4761V35.5239C50 40.591 50 43.1246 49.0139 45.0599C48.1464 46.7623 46.7623 48.1464 45.0599 49.0139C43.1246 50 40.591 50 35.5239 50H24.4761C19.409 50 16.8755 50 14.9401 49.0139C13.2377 48.1464 11.8536 46.7623 10.9861 45.0599C10 43.1246 10 40.591 10 35.5239V24.4761Z" fill="#E6001F"></path><path d="M18.75 38.75C18.75 38.75 26.5259 20.0049 26.5074 20H32.4126L41.25 38.75H34.5751C34.5801 38.7599 29.5704 27.2454 29.5075 27.1296C29.4965 27.23 26.1855 34.9364 26.1455 34.9459H29.7137C29.6975 34.9655 31.2652 38.7143 31.2652 38.75H18.75Z" fill="white"></path></g><defs><clipPath id="clip0_2_701"><rect width="40" height="40" fill="white" transform="translate(10 10)"></rect></clipPath></defs></svg>